<mxfile host="65bd71144e">
    <diagram id="og1n3h6cfN-GUFPLe442" name="第 1 页">
        <mxGraphModel dx="993" dy="764" grid="1" gridSize="10" guides="1" tooltips="1" connect="1" arrows="1" fold="1" page="1" pageScale="1" pageWidth="827" pageHeight="1169" math="0" shadow="0">
            <root>
                <mxCell id="0"/>
                <mxCell id="1" parent="0"/>
                <mxCell id="2" value="proflier" style="label;whiteSpace=wrap;html=1;align=center;verticalAlign=bottom;spacingLeft=0;spacingBottom=4;imageAlign=center;imageVerticalAlign=top;image=img/clipart/Gear_128x128.png;fontFamily=Comic Sans MS;fontSize=20;fillColor=none;gradientColor=none;strokeColor=none;" vertex="1" parent="1">
                    <mxGeometry x="354" y="240" width="120" height="80" as="geometry"/>
                </mxCell>
            </root>
        </mxGraphModel>
    </diagram>
</mxfile>